<?xml version="1.0" encoding="utf-8"?>

<!DOCTYPE svg PUBLIC "-//W3C//DTD SVG 1.1//EN" "http://www.w3.org/Graphics/SVG/1.1/DTD/svg11.dtd">
<svg style="fill:currentColor;" version="1.1" id="_x32_" xmlns="http://www.w3.org/2000/svg" xmlns:xlink="http://www.w3.org/1999/xlink" viewBox="0 0 512 512"  xml:space="preserve">
<g>
	<polygon class="st0" points="158.227,313.474 185.858,333.556 217.339,356.416 244.97,336.31 196.413,301.055 196.406,301.063 
		168.775,280.988 168.767,280.996 99.983,231.004 171.375,231.004 181.9,198.51 0,198.51 158.204,313.489 	"/>
	<polygon class="st0" points="200.617,288.06 219.157,231.004 229.735,198.51 256.023,117.683 278.069,185.516 312.25,185.516 
		256.023,12.546 240.558,60.067 195.546,198.51 185.021,231.004 173.024,268.009 	"/>
	<polygon class="st0" points="353.78,313.474 343.226,280.988 343.226,280.996 331.183,243.999 297.048,243.999 315.587,301.055 
		315.587,301.07 326.15,333.556 326.158,333.548 352.408,414.422 294.661,372.493 267.062,392.546 414.227,499.454 353.796,313.489 
			"/>
	<polygon class="st0" points="354.272,272.98 364.842,305.473 512,198.51 243.374,198.51 232.85,231.004 412.018,231.004 
		354.272,272.933 	"/>
	<polygon class="st0" points="315.066,341.603 304.495,309.109 256.023,344.372 228.385,364.432 159.592,414.422 181.646,346.536 
		154.001,326.438 97.773,499.454 256.023,384.522 283.616,364.432 	"/>
</g>
</svg>