<svg style="fill:currentColor;" xmlns="http://www.w3.org/2000/svg" viewBox="0 0 512 512">
 <g transform="translate(0,0)">
    <path d="m254,21c23.94174,0 46.23947,13.20722 63.44979,36.86995c17.20865,23.6644 28.44105,57.47354 28.44105,95.11871c0,37.64517 -11.2324,71.45432 -28.44105,95.11871c-17.21032,23.66273 -39.50972,36.86995 -63.44979,36.86995c-23.94174,0 -46.23947,-13.20722 -63.44979,-36.86995c-17.20865,-23.6644 -28.44105,-57.47354 -28.44105,-95.11871c0,-37.64517 11.23073,-71.45432 28.44105,-95.11871c17.21032,-23.66273 39.50972,-36.86995 63.44979,-36.86995zm66.8297,130.31792l-133.6594,0l0,30.07337l51.79302,0l0,38.42708l30.07337,0l0,-38.42708l51.79302,0l0,-30.07337zm7.98114,129.87016c37.20576,5.85595 81.5573,15.55795 141.89616,28.96065c-30.7166,53.36352 -50.96934,119.93258 -61.72892,175.46806c-51.43214,5.42824 -119.05878,15.83864 -154.97808,-19.74651c-38.60418,35.49492 -113.80263,29.80939 -155.10839,19.08656c-10.79133,-55.40349 -31.0023,-121.65345 -61.59861,-174.80812c60.33887,-13.4027 104.6904,-23.1047 141.89616,-28.96065c20.26109,20.7974 46.22443,33.86261 74.81084,33.86261c28.5864,0 54.54974,-13.06521 74.81084,-33.86261zm-59.77415,72.28969l-30.07337,0l0,80.19564l30.07337,0"/>
  </g>
</svg>