<?xml version="1.0" encoding="UTF-8" standalone="no"?>
<svg
   style="fill:currentColor;"
   viewBox="0 0 512 512"
   version="1.1"
   id="svg1"
   sodipodi:docname="d10-8.svg"
   inkscape:version="1.4 (86a8ad7, 2024-10-11)"
   xmlns:inkscape="http://www.inkscape.org/namespaces/inkscape"
   xmlns:sodipodi="http://sodipodi.sourceforge.net/DTD/sodipodi-0.dtd"
   xmlns="http://www.w3.org/2000/svg"
   xmlns:svg="http://www.w3.org/2000/svg">
  <defs
     id="defs1" />
  <sodipodi:namedview
     id="namedview1"
     pagecolor="#ffffff"
     bordercolor="#000000"
     borderopacity="0.25"
     inkscape:showpageshadow="2"
     inkscape:pageopacity="0.0"
     inkscape:pagecheckerboard="0"
     inkscape:deskcolor="#d1d1d1"
     inkscape:zoom="3.5449219"
     inkscape:cx="255.85895"
     inkscape:cy="256"
     inkscape:window-width="3840"
     inkscape:window-height="2054"
     inkscape:window-x="-11"
     inkscape:window-y="-11"
     inkscape:window-maximized="1"
     inkscape:current-layer="g1" />
  <g
     transform="translate(0,0)"
     id="g1">
    <path
       id="path1"
       d="M 255.98633 26 L 137.45508 231.02539 L 255.98828 286.07617 L 374.5918 231.02539 L 255.98633 26 z M 285.01758 35.371094 L 387.13867 214.99414 L 393.23828 225.69727 L 484.81055 248.63867 L 285.01758 35.371094 z M 227.0293 35.443359 L 27.189453 248.86523 L 119.22461 225.07812 L 124.93359 215.01953 L 227.0293 35.443359 z M 257.82617 132.64062 C 269.41468 132.64062 277.42254 135.04949 281.84961 139.86719 C 286.27668 144.68488 288.49023 151.56296 288.49023 160.50391 C 288.49023 166.18966 287.75108 170.29124 286.27539 172.80859 C 284.8431 175.32595 281.8713 177.82292 277.35742 180.29688 C 281.22026 181.85937 284.19206 184.20313 286.27539 187.32812 C 288.35872 190.40971 289.40039 197.78757 289.40039 209.46289 C 289.40039 217.96981 288.57704 224.2409 286.92773 228.27734 C 285.27843 232.31379 282.06531 235.63412 277.29102 238.23828 C 272.51672 240.79904 266.11543 242.08008 258.08594 242.08008 C 250.27346 242.08008 244.08853 240.84309 239.53125 238.36914 C 234.97397 235.89519 231.69769 232.61891 229.70117 228.53906 C 227.74805 224.45921 226.77148 217.66534 226.77148 208.16016 C 226.77148 201.77996 227.24827 196.24608 228.20312 191.55859 C 229.20139 186.87111 232.28235 183.11805 237.44727 180.29688 C 234.19207 178.73438 231.7411 176.26041 230.0918 172.875 C 228.4859 169.44619 227.68164 165.10524 227.68164 159.85352 C 227.68164 150.78236 230.19967 143.99044 235.23438 139.47656 C 240.26908 134.91928 247.80016 132.64062 257.82617 132.64062 z M 258.02148 148.85156 C 256.28538 148.85156 255.1135 149.4796 254.50586 150.73828 C 253.89822 151.95356 253.59375 154.25522 253.59375 157.64062 L 253.59375 165.64844 C 253.59375 168.81683 253.94032 171.00738 254.63477 172.22266 C 255.32921 173.43793 256.50109 174.04688 258.15039 174.04688 C 259.8865 174.04688 261.05838 173.46093 261.66602 172.28906 C 262.27365 171.07379 262.57812 168.59982 262.57812 164.86719 L 262.57812 157.64062 C 262.57812 154.08161 262.2526 151.73784 261.60156 150.60938 C 260.99393 149.4375 259.80099 148.85156 258.02148 148.85156 z M 257.95508 191.42969 C 256.21897 191.42969 254.96094 192.08073 254.17969 193.38281 C 253.44184 194.64149 253.07227 197.33182 253.07227 201.45508 L 253.07227 215.12695 C 253.07227 219.68423 253.4859 222.61394 254.31055 223.91602 C 255.1786 225.2181 256.52279 225.86914 258.3457 225.86914 C 260.21202 225.86914 261.47201 225.2181 262.12305 223.91602 C 262.77409 222.57053 263.09961 219.57573 263.09961 214.93164 L 263.09961 201.45508 C 263.09961 197.41863 262.68598 194.74935 261.86133 193.44727 C 261.03668 192.10178 259.73459 191.42969 257.95508 191.42969 z M 121.60352 244.33398 L 36.892578 266.09766 L 246.47461 486 L 246.47461 302.38086 L 136.52734 251.24219 L 121.60352 244.33398 z M 390.01758 244.53516 L 375.48242 251.24219 L 265.50391 302.38086 L 265.7168 485.76172 L 477.00977 266.3457 L 390.01758 244.53516 z " />
  </g>
</svg>
