<?xml version="1.0" encoding="UTF-8" standalone="no"?>
<svg
   style="fill:currentColor;"
   viewBox="0 0 512 512"
   version="1.1"
   id="svg1"
   sodipodi:docname="d10-9.svg"
   inkscape:version="1.4 (86a8ad7, 2024-10-11)"
   xmlns:inkscape="http://www.inkscape.org/namespaces/inkscape"
   xmlns:sodipodi="http://sodipodi.sourceforge.net/DTD/sodipodi-0.dtd"
   xmlns="http://www.w3.org/2000/svg"
   xmlns:svg="http://www.w3.org/2000/svg">
  <defs
     id="defs1" />
  <sodipodi:namedview
     id="namedview1"
     pagecolor="#ffffff"
     bordercolor="#000000"
     borderopacity="0.25"
     inkscape:showpageshadow="2"
     inkscape:pageopacity="0.0"
     inkscape:pagecheckerboard="0"
     inkscape:deskcolor="#d1d1d1"
     inkscape:zoom="3.5449219"
     inkscape:cx="255.85895"
     inkscape:cy="256"
     inkscape:window-width="3840"
     inkscape:window-height="2054"
     inkscape:window-x="-11"
     inkscape:window-y="-11"
     inkscape:window-maximized="1"
     inkscape:current-layer="g1" />
  <g
     transform="translate(0,0)"
     id="g1">
    <path
       id="path1"
       d="M 255.98633 26 L 137.45508 231.02539 L 255.98828 286.07617 L 374.5918 231.02539 L 255.98633 26 z M 285.01758 35.371094 L 387.13867 214.99414 L 393.23828 225.69727 L 484.81055 248.63867 L 285.01758 35.371094 z M 227.0293 35.443359 L 27.189453 248.86523 L 119.22461 225.07812 L 124.93359 215.01953 L 227.0293 35.443359 z M 257.17383 132.64062 C 264.20506 132.64062 269.97831 133.61719 274.49219 135.57031 C 279.00606 137.52343 282.50066 140.34398 284.97461 144.0332 C 287.44856 147.67903 288.88086 151.52019 289.27148 155.55664 C 289.66211 159.59309 289.85742 167.40563 289.85742 178.99414 L 289.85742 193.64258 C 289.85742 206.18595 289.68316 214.58443 289.33594 218.83789 C 288.98872 223.04795 287.47026 227.04037 284.7793 230.81641 C 282.13173 234.59244 278.52798 237.43599 273.9707 239.3457 C 269.41342 241.21202 264.13996 242.14453 258.15039 242.14453 C 250.72853 242.14453 244.65277 240.9516 239.92188 238.56445 C 235.23439 236.17731 231.84895 232.81292 229.76562 228.47266 C 227.7257 224.13239 226.70508 218.66361 226.70508 212.06641 L 253.00781 212.06641 C 253.00781 216.97091 253.07292 220.07487 253.20312 221.37695 C 253.33333 222.63563 253.85417 223.69835 254.76562 224.56641 C 255.72048 225.43446 257.00152 225.86914 258.60742 225.86914 C 259.9529 225.86914 261.05968 225.45746 261.92773 224.63281 C 262.79579 223.80816 263.27257 222.74349 263.35938 221.44141 C 263.48958 220.13933 263.55469 217.5141 263.55469 213.56445 L 263.55469 196.76758 C 262.25261 199.58875 260.29947 201.71615 257.69531 203.14844 C 255.09115 204.53732 251.85698 205.23047 247.99414 205.23047 C 243.17644 205.23047 238.9236 203.92838 235.23438 201.32422 C 231.54515 198.72006 229.20139 195.59504 228.20312 191.94922 C 227.20486 188.30339 226.70508 183.37846 226.70508 177.17188 L 226.70508 168.77344 C 226.70508 161.39498 226.9885 155.9032 227.55273 152.30078 C 228.16037 148.69836 229.67883 145.37803 232.10938 142.33984 C 234.53992 139.25825 237.90431 136.87239 242.20117 135.17969 C 246.49804 133.48698 251.48808 132.64062 257.17383 132.64062 z M 258.3457 148.85156 C 257.21723 148.85156 256.04535 149.4145 254.83008 150.54297 C 253.6148 151.62804 253.00781 154.60179 253.00781 159.46289 L 253.00781 179.18945 C 253.00781 183.61653 253.5727 186.35091 254.70117 187.39258 C 255.87304 188.43424 257.06598 188.95508 258.28125 188.95508 C 260.10416 188.95508 261.4273 188.30403 262.25195 187.00195 C 263.12001 185.65647 263.55469 183.05229 263.55469 179.18945 L 263.55469 160.11328 C 263.55469 155.4692 263.14301 152.43229 262.31836 151 C 261.53711 149.56771 260.21202 148.85156 258.3457 148.85156 z M 121.60352 244.33398 L 36.892578 266.09766 L 246.47461 486 L 246.47461 302.38086 L 136.52734 251.24219 L 121.60352 244.33398 z M 390.01758 244.53516 L 375.48242 251.24219 L 265.50391 302.38086 L 265.7168 485.76172 L 477.00977 266.3457 L 390.01758 244.53516 z " />
  </g>
</svg>
