<?xml version="1.0" encoding="iso-8859-1"?>
<!-- Uploaded to: SVG Repo, www.svgrepo.com, Generator: SVG Repo Mixer Tools -->
<!DOCTYPE svg PUBLIC "-//W3C//DTD SVG 1.1//EN" "http://www.w3.org/Graphics/SVG/1.1/DTD/svg11.dtd">
<svg style="fill:currentColor;" version="1.1" id="Capa_1" xmlns="http://www.w3.org/2000/svg" xmlns:xlink="http://www.w3.org/1999/xlink" 
	 width="800px" height="800px" viewBox="0 0 30.102 30.103"
	 xml:space="preserve">
<g>
	<g>
		<g>
			<path d="M5.492,8.254c0,1.104,0.896,2,2,2s2-0.896,2-2V7.127h1.128c1.104,0,2-0.896,2-2s-0.896-2-2-2H9.492V2
				c0-1.104-0.896-2-2-2s-2,0.896-2,2v1.127H4.364c-1.104,0-2,0.896-2,2s0.896,2,2,2h1.127L5.492,8.254L5.492,8.254z"/>
			<path d="M25.739,3.127h-1.127V2c0-1.104-0.896-2-2-2c-1.104,0-2,0.896-2,2v1.127h-1.128c-1.104,0-2,0.896-2,2s0.896,2,2,2h1.128
				v1.127c0,1.104,0.896,2,2,2c1.104,0,2-0.896,2-2V7.127h1.127c1.104,0,2-0.896,2-2S26.844,3.127,25.739,3.127z"/>
			<path d="M21.958,17.197c-1.653,0-3,1.347-3,3c0,2.153-1.752,3.905-3.906,3.905s-3.906-1.752-3.906-3.905c0-1.653-1.346-3-3-3
				c-1.654,0-3,1.347-3,3c0,5.463,4.444,9.905,9.906,9.905c5.462,0,9.906-4.442,9.906-9.905
				C24.958,18.544,23.612,17.197,21.958,17.197z M15.052,28.105c-4.359,0-7.906-3.548-7.906-7.906c0-0.551,0.449-1,1-1
				c0.551,0,1,0.449,1,1c0,3.257,2.649,5.906,5.906,5.906c3.257,0,5.906-2.649,5.906-5.906c0-0.551,0.449-1,1-1s1,0.449,1,1
				C22.958,24.559,19.411,28.105,15.052,28.105z"/>
			<path d="M10.302,13.585c0,2.624,2.126,4.75,4.75,4.75c2.625,0,4.75-2.126,4.75-4.75s-2.125-4.75-4.75-4.75
				C12.428,8.835,10.302,10.962,10.302,13.585z M15.052,10.023c0.276,0,0.5,0.224,0.5,0.5s-0.224,0.5-0.5,0.5
				c-1.413,0-2.563,1.149-2.563,2.563c0,0.276-0.224,0.5-0.5,0.5s-0.5-0.224-0.5-0.5C11.489,11.621,13.088,10.023,15.052,10.023z" fill-opacity="1"/>
		</g>
	</g>
</g>
</svg>