<?xml version="1.0" encoding="iso-8859-1"?>
<!-- Uploaded to: SVG Repo, www.svgrepo.com, Generator: SVG Repo Mixer Tools -->
<svg style="fill:currentColor;" version="1.1" id="Layer_1" xmlns="http://www.w3.org/2000/svg" xmlns:xlink="http://www.w3.org/1999/xlink" 
	 viewBox="0 0 392.663 392.663" xml:space="preserve">
<g>
	<g>
		<path d="M381.737,370.812h-10.925V21.85h10.925c6.012,0,10.925-4.848,10.925-10.925S387.814,0,381.737,0H10.925
			C4.913,0,0,4.848,0,10.925S4.848,21.85,10.925,21.85h10.925v348.962H10.925C4.913,370.812,0,375.661,0,381.737
			c0,6.012,4.848,10.925,10.925,10.925h370.747c6.012,0,10.925-4.848,10.925-10.925
			C392.598,375.661,387.749,370.812,381.737,370.812z M261.754,21.85h32.711v51.976h-32.711V21.85z M207.192,21.85h32.711v51.976
			h-32.711V21.85z M152.695,21.85h32.711v51.976h-32.711V21.85z M98.198,21.85h32.711c0,0,0,51.976,0,51.976H98.198V21.85z
			 M98.198,95.677h196.267v86.238l-196.267-0.065V95.677z M76.347,370.812H43.636V21.85h32.711V370.812z M130.909,370.812H98.198
			c0,0,0-167.047,0-167.047h32.711V370.812z M185.471,370.812H152.76V203.766h32.711V370.812z M239.968,370.812h-32.711V203.766
			h32.711V370.812z M294.465,370.812h-32.711V203.766h32.711V370.812z M349.026,370.812h-32.711V21.85h32.711V370.812z"/>
	</g>
</g>
</svg>