<?xml version="1.0" encoding="UTF-8" standalone="no"?>
<svg
   viewBox="0 0 512 512"
   version="1.1"
   id="svg1"
   sodipodi:docname="reroll-8.svg"
   inkscape:version="1.4 (86a8ad7, 2024-10-11)"
   xmlns:inkscape="http://www.inkscape.org/namespaces/inkscape"
   xmlns:sodipodi="http://sodipodi.sourceforge.net/DTD/sodipodi-0.dtd"
   xmlns="http://www.w3.org/2000/svg"
   xmlns:svg="http://www.w3.org/2000/svg">
  <g>
    <path
       id="text1"
       style="font-stretch:condensed;font-size:293.333px;font-family:Impact;-inkscape-font-specification:'Impact Condensed';text-align:center;writing-mode:lr-tb;direction:ltr;text-anchor:middle;fill:currentColor"
       d="M 263.08984 50 C 251.20784 49.993 239.21442 51.018859 227.23242 53.130859 C 142.02542 68.156859 75.156859 135.02542 60.130859 220.23242 C 45.108859 305.43942 85.075859 391.15016 160.00586 434.41016 C 192.78786 453.33716 229.25975 462.40589 265.46875 461.96289 C 312.02375 461.39289 358.14378 445.0975 395.42578 413.8125 L 364.57031 377.04492 C 313.62031 419.79492 241.60191 426.0948 184.00391 392.8418 C 126.40691 359.5878 95.851391 294.06536 107.40039 228.56836 C 118.95039 163.07136 170.07231 111.94839 235.57031 100.40039 C 287.22631 91.292391 338.89323 108.37972 374.74023 144.26172 L 327 192 L 455 192 L 455 64 L 408.66016 110.3418 C 370.24216 71.961797 317.82984 50.03 263.08984 50 z M 246.75195 139.13867 C 224.69469 139.13867 208.12716 144.1517 197.05078 154.17773 C 185.9744 164.10828 180.4375 179.05124 180.4375 199.00781 C 180.4375 210.56162 182.20335 220.1109 185.73633 227.6543 C 189.3648 235.10221 194.76042 240.54493 201.92188 243.98242 C 190.55904 250.18901 183.77821 258.44923 181.58203 268.76172 C 179.48134 279.07421 178.43164 291.24871 178.43164 305.28516 C 178.43164 326.19659 180.58008 341.13955 184.87695 350.11523 C 189.26931 359.09092 196.47788 366.29949 206.50391 371.74219 C 216.52994 377.18489 230.13674 379.90625 247.32422 379.90625 C 264.98913 379.90625 279.07271 377.09071 289.57617 371.45703 C 300.07963 365.72787 307.14692 358.42317 310.77539 349.54297 C 314.40386 340.66277 316.2168 326.86369 316.2168 308.14844 C 316.2168 282.4627 313.92513 266.23068 309.3418 259.45117 C 304.75847 252.57618 298.21896 247.41992 289.7207 243.98242 C 299.65125 238.53972 306.19076 233.04991 309.3418 227.51172 C 312.58832 221.97353 314.21289 212.95007 314.21289 200.44141 C 314.21289 180.77129 309.34309 165.63606 299.60352 155.03711 C 289.86394 144.43816 272.24672 139.13867 246.75195 139.13867 z M 247.18164 174.80273 C 251.09657 174.80273 253.72179 176.0918 255.05859 178.66992 C 256.49088 181.15256 257.20703 186.30882 257.20703 194.13867 L 257.20703 210.03711 C 257.20703 218.24891 256.53798 223.69163 255.20117 226.36523 C 253.86437 228.94336 251.28624 230.23242 247.4668 230.23242 C 243.83833 230.23242 241.2602 228.89626 239.73242 226.22266 C 238.20465 223.54905 237.44141 218.72634 237.44141 211.75586 L 237.44141 194.13867 C 237.44141 186.69076 238.11046 181.63064 239.44727 178.95703 C 240.78407 176.18794 243.3622 174.80273 247.18164 174.80273 z M 247.03711 268.47461 C 250.95204 268.47461 253.81663 269.954 255.63086 272.91406 C 257.44509 275.77864 258.35352 281.65105 258.35352 290.53125 L 258.35352 320.17969 C 258.35352 330.39669 257.63737 336.98525 256.20508 339.94531 C 254.77279 342.80989 252.00238 344.24219 247.89648 344.24219 C 243.88607 344.24219 240.9273 342.80989 239.01758 339.94531 C 237.20334 337.08073 236.29688 330.63541 236.29688 320.60938 L 236.29688 290.53125 C 236.29687 281.46008 237.10721 275.54058 238.73047 272.77148 C 240.44922 269.9069 243.21767 268.47461 247.03711 268.47461 z " />
  </g>
</svg>
