<?xml version="1.0" encoding="UTF-8" standalone="no"?>
<svg
   viewBox="0 0 512 512"
   version="1.1"
   id="svg1"
   sodipodi:docname="reroll-9.svg"
   inkscape:version="1.4 (86a8ad7, 2024-10-11)"
   xmlns:inkscape="http://www.inkscape.org/namespaces/inkscape"
   xmlns:sodipodi="http://sodipodi.sourceforge.net/DTD/sodipodi-0.dtd"
   xmlns="http://www.w3.org/2000/svg"
   xmlns:svg="http://www.w3.org/2000/svg">
  <g>
    <path
       id="text1"
       style="font-stretch:condensed;font-size:293.333px;font-family:Impact;-inkscape-font-specification:'Impact Condensed';text-align:center;writing-mode:lr-tb;direction:ltr;text-anchor:middle;fill:currentColor"
       d="M 263.08984 50 C 251.20784 49.993 239.21442 51.018859 227.23242 53.130859 C 142.02542 68.156859 75.156859 135.02542 60.130859 220.23242 C 45.108859 305.43942 85.075859 391.15016 160.00586 434.41016 C 192.78786 453.33716 229.25975 462.40589 265.46875 461.96289 C 312.02375 461.39289 358.14378 445.0975 395.42578 413.8125 L 364.57031 377.04492 C 313.62031 419.79492 241.60191 426.0948 184.00391 392.8418 C 126.40691 359.5878 95.851391 294.06536 107.40039 228.56836 C 118.95039 163.07136 170.07231 111.94839 235.57031 100.40039 C 287.22631 91.292391 338.89323 108.37972 374.74023 144.26172 L 327 192 L 455 192 L 455 64 L 408.66016 110.3418 C 370.24216 71.961797 317.82984 50.03 263.08984 50 z M 245.31836 139.13867 C 232.80969 139.13867 221.83007 141.00066 212.37695 144.72461 C 202.92384 148.44856 195.523 153.70096 190.17578 160.48047 C 184.82856 167.16449 181.48719 174.46919 180.15039 182.39453 C 178.90907 190.31987 178.28906 202.39824 178.28906 218.63086 L 178.28906 237.10742 C 178.28906 250.76192 179.38585 261.60027 181.58203 269.62109 C 183.77821 277.64192 188.93447 284.51693 197.05078 290.24609 C 205.16709 295.97525 214.52605 298.83984 225.125 298.83984 C 233.62325 298.83984 240.73568 297.31141 246.46484 294.25586 C 252.194 291.10482 256.49089 286.42534 259.35547 280.21875 L 259.35547 317.17188 C 259.35547 325.8611 259.21224 331.63933 258.92578 334.50391 C 258.73481 337.36849 257.68511 339.70725 255.77539 341.52148 C 253.86567 343.33572 251.43077 344.24219 248.4707 344.24219 C 244.93772 344.24219 242.12022 343.28863 240.01953 341.37891 C 238.01433 339.46919 236.86849 337.12847 236.58203 334.35938 C 236.29557 331.49479 236.15234 324.66882 236.15234 313.87891 L 178.28906 313.87891 C 178.28906 328.39278 180.53169 340.42406 185.01953 349.97266 C 189.60286 359.52126 197.05079 366.92014 207.36328 372.17188 C 217.77126 377.42361 231.13869 380.05078 247.4668 380.05078 C 260.64387 380.05078 272.24545 377.99652 282.27148 373.89062 C 292.29751 369.68924 300.22418 363.43619 306.04883 355.12891 C 311.96896 346.82162 315.31033 338.03558 316.07422 328.77344 C 316.83811 319.41581 317.2207 300.93921 317.2207 273.34375 L 317.2207 241.11719 C 317.2207 215.62242 316.79101 198.43489 315.93164 189.55469 C 315.07227 180.67449 311.92122 172.22395 306.47852 164.20312 C 301.03581 156.08681 293.34851 149.88085 283.41797 145.58398 C 273.48742 141.28711 260.78709 139.13867 245.31836 139.13867 z M 247.89648 174.80273 C 252.00238 174.80273 254.91602 176.37826 256.63477 179.5293 C 258.449 182.68034 259.35547 189.36503 259.35547 199.58203 L 259.35547 241.54688 C 259.35547 250.04513 258.39995 255.77431 256.49023 258.73438 C 254.676 261.59896 251.76432 263.03125 247.75391 263.03125 C 245.0803 263.03125 242.45508 261.88541 239.87695 259.59375 C 237.39432 257.30209 236.15234 251.28645 236.15234 241.54688 L 236.15234 198.14844 C 236.15234 187.454 237.4885 180.91449 240.16211 178.52734 C 242.83572 176.04471 245.41385 174.80273 247.89648 174.80273 z " />
  </g>
</svg>
