<svg style="fill:currentColor;" xmlns="http://www.w3.org/2000/svg" viewBox="0 0 512 512"><g transform="translate(2,0)"><g>
<path d="M256 25C270.33 25 283.676 32.905 293.977 47.068C304.277 61.232 311 81.468 311 104C311 126.532 304.277 146.768 293.977 160.932C283.676 175.095 270.329 183 256 183C241.67 183 228.324 175.095 218.023 160.932C207.723 146.768 201 126.532 201 104C201 81.468 207.722 61.232 218.023 47.068C228.324 32.905 241.671 25 256 25Z" fill-opacity="1"></path>
<path d="M296 103L216 103L216 121L247 121L247 144L265 144L265 121L296 121Z" fill-opacity="0"></path>
<path d="M300.777 180.732C323.046 184.237 349.592 190.044 385.707 198.066C367.322 230.006 355.2 269.85 348.76 303.09C317.976 306.339 277.499 312.57 256 291.271C232.894 312.516 187.885 309.113 163.162 302.695C156.703 269.534 144.606 229.881 126.293 198.066C162.408 190.044 188.954 184.237 211.223 180.732C223.35 193.18 238.89 201 256 201C273.11 201 288.65 193.18 300.777 180.732Z" fill-opacity="1"></path>
<path d="M265 224L247 224L247 272L265 272Z" fill-opacity="1"></path>
</g></g></svg>