<?xml version="1.0" encoding="iso-8859-1"?>
<!-- Uploaded to: SVG Repo, www.svgrepo.com, Generator: SVG Repo Mixer Tools -->
<svg version="1.1" id="Layer_1" xmlns="http://www.w3.org/2000/svg" xmlns:xlink="http://www.w3.org/1999/xlink" viewBox="0 0 512 512" xml:space="preserve">
<g>
	<g>
		<path d="M445.568,84.544c-0.128-0.171-0.192-0.384-0.341-0.533c-0.555-0.597-1.173-1.131-1.728-1.728
			c-4.416-4.757-9.003-9.344-13.76-13.76c-0.597-0.555-1.109-1.173-1.707-1.707c-0.149-0.149-0.384-0.192-0.533-0.341
			C382.016,25.301,321.984,0,256,0C189.995,0,129.92,25.323,84.48,66.496c-0.149,0.128-0.341,0.171-0.469,0.299
			c-0.533,0.469-0.981,1.024-1.493,1.493c-4.928,4.565-9.664,9.301-14.229,14.229c-0.469,0.512-1.024,0.981-1.493,1.493
			c-0.128,0.128-0.171,0.32-0.299,0.469C25.323,129.92,0,189.995,0,256s25.323,126.037,66.475,171.477
			c0.128,0.171,0.192,0.363,0.32,0.533c0.533,0.597,1.152,1.109,1.707,1.707c4.416,4.779,9.003,9.365,13.781,13.781
			c0.597,0.555,1.131,1.173,1.728,1.728c0.171,0.149,0.384,0.213,0.555,0.341C130.005,486.699,190.016,512,256,512
			c65.963,0,125.973-25.28,171.392-66.389c0.192-0.149,0.427-0.213,0.619-0.384c0.683-0.619,1.28-1.323,1.941-1.941
			c4.608-4.288,9.045-8.725,13.333-13.333c0.619-0.661,1.323-1.259,1.941-1.941c0.171-0.171,0.235-0.427,0.384-0.619
			C486.72,381.952,512,321.963,512,256C512,190.016,486.699,129.984,445.568,84.544z M64.021,390.528
			C37.227,352.384,21.333,306.048,21.333,256s15.893-96.384,42.688-134.528V390.528z M256,21.333
			c50.048,0,96.384,15.872,134.528,42.688H121.472C159.616,37.205,205.952,21.333,256,21.333z M85.333,95.445
			c0.341-0.384,0.683-0.768,1.045-1.152c2.581-2.688,5.227-5.333,7.915-7.915c0.384-0.363,0.768-0.704,1.152-1.045h143.552
			L85.333,402.24V95.445z M256.021,490.667c-50.027,0-96.384-15.872-134.507-42.667h268.992
			C352.384,474.795,306.048,490.667,256.021,490.667z M97.195,426.667L256,99.115l158.805,327.552H97.195z M426.667,402.197
			L273.045,85.333h143.509c0.384,0.341,0.768,0.683,1.152,1.045c2.709,2.581,5.355,5.227,7.936,7.936
			c0.341,0.363,0.683,0.747,1.024,1.131V402.197z M448,121.515c26.795,38.123,42.667,84.459,42.667,134.485
			S474.795,352.363,448,390.485V121.515z"/>
	</g>
</g>
</svg>