<?xml version="1.0" encoding="iso-8859-1"?>
<!-- Uploaded to: SVG Repo, www.svgrepo.com, Generator: SVG Repo Mixer Tools -->
<svg fill="#000000" height="800px" width="800px" version="1.1" id="Layer_1" xmlns="http://www.w3.org/2000/svg" xmlns:xlink="http://www.w3.org/1999/xlink" 
	 viewBox="0 0 490.667 490.667" xml:space="preserve">
<g>
	<g>
		<path d="M480,0H10.667C4.779,0,0,4.779,0,10.667V480c0,5.888,4.779,10.667,10.667,10.667H480c5.888,0,10.667-4.779,10.667-10.667
			V10.667C490.667,4.779,485.888,0,480,0z M21.333,21.333h124.395C90.475,46.016,46.016,90.475,21.333,145.728V21.333z
			 M227.115,22.251L50.624,355.648c-18.56-32.597-29.291-70.187-29.291-110.315C21.333,127.957,112.107,31.573,227.115,22.251z
			 M245.333,33.472l174.272,329.195H71.061L245.333,33.472z M21.333,469.333V344.939c24.683,55.275,69.141,99.733,124.395,124.395
			H21.333z M69.739,384h351.189c-41.067,51.883-104.427,85.333-175.595,85.333C174.187,469.333,110.805,435.883,69.739,384z
			 M469.333,469.333H344.939c55.275-24.683,99.733-69.141,124.395-124.395V469.333z M440.043,355.648L263.552,22.251
			c115.008,9.323,205.781,105.707,205.781,223.083C469.333,285.461,458.603,323.051,440.043,355.648z M469.333,145.728
			c-24.683-55.253-69.141-99.712-124.395-124.395h124.395V145.728z"/>
	</g>
</g>
</svg>