<svg style="fill:currentColor;" xmlns="http://www.w3.org/2000/svg" viewBox="0 0 512 512"><g transform="translate(0,0)"><g>
<path d="M96 25C83 25 68.95 31.78 58.36 42.36C50.19 50.54 44.33 60.77 42.06 71L145.4 71L122.4 25L96 25Z" fill-opacity="1"></path>
<path d="M389.6 25L366.6 71L469.9 71C467.7 60.77 461.8 50.54 453.6 42.36C443.1 31.78 429 25 416 25L389.6 25Z" fill-opacity="1"></path>
<path d="M362.1 39.65C336.8 41.2 312.3 45.8 292 55.95C276.7 63.57 264 74.9 256 89.94C248 74.9 235.3 63.57 220 55.95C199.7 45.8 175.2 41.21 149.9 39.66L159.4 58.55C179.2 60.61 197.6 64.84 212 72.05C233.8 82.98 247 99 247 128L247 359L265 359L265 128C265 99 278.2 82.98 300 72.05C314.5 64.83 332.8 60.6 352.6 58.54L362.1 39.65Z" fill-opacity="1"></path>
<path d="M47.34 89L19 131.2L66.8 109.3L57.8 176L90.7 117.2L103.9 203L118.7 113.7L165.4 172.4L143.3 102.8L194.5 116.4L163.4 89L47.34 89Z" fill-opacity="0"></path>
<path d="M348.6 89L317.5 116.4L368.7 102.8L346.6 172.4L393.3 113.7L408.1 203L421.3 117.2L454.2 176L445.2 109.3L493 131.2L464.7 89L348.6 89Z" class="selected" fill="#ffffca" fill-opacity="0.43"></path>
<path d="M236.7 377L233.3 487L278.7 487L275.3 377L236.7 377Z" fill-opacity="1"></path></g></g></svg>